<?xml version="1.0" standalone="no"?>
<!DOCTYPE svg PUBLIC "-//W3C//DTD SVG 20010904//EN"
 "http://www.w3.org/TR/2001/REC-SVG-20010904/DTD/svg10.dtd">
<svg version="1.0" xmlns="http://www.w3.org/2000/svg"
 width="512.000000pt" height="512.000000pt" viewBox="0 0 512.000000 512.000000"
 preserveAspectRatio="xMidYMid meet">
<metadata>
Created by potrace 1.14, written by Peter Selinger 2001-2017
</metadata>
<g transform="translate(0.000000,512.000000) scale(0.100000,-0.100000)"
fill="#000000" stroke="none">
<path d="M2356 4287 c-36 -63 -66 -120 -66 -128 0 -8 29 -63 64 -124 l64 -110
140 -3 139 -3 67 117 c36 64 66 120 66 125 0 4 -30 60 -67 123 l-67 116 -137
0 -137 0 -66 -113z"/>
<path d="M103 4252 l-93 -47 -1 -45 c0 -25 -3 -71 -5 -102 l-3 -57 47 -33 c26
-18 59 -39 75 -47 15 -8 27 -18 27 -23 0 -17 39 -6 120 34 47 22 86 42 88 43
2 2 5 49 8 106 l6 104 -85 58 c-47 31 -87 57 -89 56 -2 0 -45 -21 -95 -47z"/>
<path d="M4835 4242 l-86 -57 5 -104 c3 -57 7 -105 8 -107 9 -8 174 -84 183
-84 7 0 47 24 91 53 l79 53 -1 59 c-1 33 -2 80 -3 105 l-1 45 -94 47 -94 47
-87 -57z"/>
<path d="M458 3993 c0 -27 -1 -55 -2 -63 -1 -8 -23 -25 -49 -38 -41 -19 -47
-26 -41 -44 3 -12 259 -528 569 -1147 309 -619 649 -1301 756 -1516 l194 -390
55 1 c96 3 511 24 565 29 17 2 35 3 42 4 6 1 -19 47 -56 104 -37 56 -103 156
-146 222 -43 66 -99 152 -124 190 -25 39 -48 75 -51 80 -3 6 -40 64 -84 130
-152 232 -282 430 -331 507 -62 96 -445 685 -565 868 -49 74 -146 224 -217
333 -70 108 -157 242 -193 297 -36 55 -121 185 -189 290 -68 104 -125 190
-127 190 -2 0 -5 -21 -6 -47z"/>
<path d="M4529 3850 c-68 -105 -182 -280 -254 -390 -250 -384 -431 -662 -570
-875 -77 -118 -192 -294 -255 -392 -63 -97 -156 -240 -207 -318 -151 -232
-256 -392 -355 -545 -52 -80 -117 -179 -144 -220 -27 -41 -51 -79 -54 -85 -3
-5 -31 -50 -64 -98 -32 -49 -56 -91 -53 -94 8 -7 44 -10 207 -17 74 -4 173 -9
220 -12 47 -3 119 -7 159 -7 l75 -2 424 850 c234 468 577 1155 763 1528 187
373 339 682 339 687 0 5 -21 20 -47 32 l-47 24 -4 59 c-2 33 -5 61 -6 63 -2 1
-59 -83 -127 -188z"/>
<path d="M2241 3985 c-13 -45 -240 -972 -244 -995 -2 -8 -47 -194 -101 -413
l-98 -397 98 -153 c262 -405 314 -481 315 -456 2 40 6 90 12 164 4 39 9 104
12 145 3 41 8 91 10 110 2 19 7 82 10 140 3 58 8 116 10 130 2 14 7 68 10 120
4 52 8 106 10 120 2 14 6 68 10 120 3 52 8 115 10 140 3 25 7 79 10 120 3 41
8 98 10 125 5 53 12 147 20 255 3 36 7 90 10 120 3 30 7 91 10 135 3 44 8 98
10 120 13 122 15 196 6 190 -6 -3 -25 18 -43 47 -18 30 -39 62 -46 73 -7 11
-19 33 -26 50 l-14 29 -11 -39z"/>
<path d="M2810 3915 c-30 -52 -61 -95 -68 -95 -11 0 -12 -20 -7 -97 3 -54 8
-111 10 -128 2 -16 7 -68 10 -115 8 -107 14 -180 20 -250 3 -30 8 -86 10 -125
3 -38 7 -90 10 -115 2 -25 6 -83 10 -130 3 -47 8 -110 10 -140 12 -131 14
-159 20 -240 4 -47 8 -101 10 -120 2 -19 6 -71 9 -115 6 -75 10 -124 21 -250
2 -27 7 -88 10 -135 3 -47 8 -101 10 -120 2 -19 7 -69 11 -110 3 -41 7 -76 8
-77 3 -3 394 600 401 618 3 8 -13 89 -35 180 -23 90 -43 171 -45 179 -2 8 -20
83 -40 165 -20 83 -38 157 -40 165 -2 8 -42 171 -89 362 -47 191 -108 443
-137 560 -28 117 -54 216 -58 220 -4 4 -31 -35 -61 -87z"/>
<path d="M65 3819 c3 -13 31 -91 61 -174 30 -82 60 -163 66 -180 5 -16 14 -39
18 -50 5 -11 43 -117 85 -235 43 -118 99 -273 125 -345 55 -149 253 -693 282
-775 70 -195 271 -748 278 -765 5 -11 53 -144 108 -295 93 -258 101 -275 123
-274 23 1 120 11 184 18 17 2 62 7 100 11 39 3 81 8 95 10 14 2 61 6 105 10
44 4 81 8 82 9 2 2 -1505 3027 -1512 3034 -2 2 -25 -8 -52 -21 l-49 -25 -39
27 c-68 46 -68 46 -60 20z"/>
<path d="M5005 3805 l-50 -33 -48 25 c-27 13 -51 23 -53 21 -1 -2 -69 -136
-149 -298 -80 -162 -151 -304 -157 -314 -5 -11 -59 -116 -118 -235 -59 -119
-328 -659 -598 -1200 -270 -542 -490 -986 -489 -987 2 -2 60 -8 182 -20 62 -6
149 -15 280 -29 66 -7 123 -10 126 -6 4 3 75 195 159 426 397 1096 552 1523
564 1555 8 19 31 82 51 140 21 58 59 164 85 235 152 413 271 747 268 750 -2 2
-26 -11 -53 -30z"/>
<path d="M2518 3822 c-24 -3 -28 -8 -29 -35 -1 -18 -2 -43 -4 -57 -1 -14 -5
-65 -9 -115 -4 -49 -9 -112 -11 -140 -3 -27 -7 -79 -10 -115 -3 -36 -7 -90
-10 -120 -3 -30 -7 -84 -10 -120 -13 -180 -17 -227 -30 -370 -2 -30 -7 -91
-10 -135 -4 -44 -8 -100 -10 -125 -3 -25 -7 -79 -10 -120 -3 -41 -7 -100 -10
-130 -3 -30 -7 -84 -10 -120 -12 -151 -16 -198 -20 -245 -3 -27 -7 -86 -11
-130 -3 -44 -7 -98 -9 -120 -2 -22 -6 -80 -9 -130 l-6 -90 69 -105 c38 -58 96
-147 129 -198 l61 -94 44 69 c24 37 83 128 131 202 84 129 87 135 82 180 -3
25 -8 84 -12 131 -3 47 -7 101 -9 120 -2 19 -6 76 -10 125 -3 50 -8 108 -10
130 -3 22 -7 72 -10 110 -9 130 -15 210 -20 260 -5 53 -11 136 -20 250 -3 39
-8 93 -10 120 -3 28 -7 82 -10 120 -10 144 -16 221 -20 260 -3 22 -7 78 -10
125 -4 47 -8 101 -10 120 -2 19 -7 80 -10 135 -4 55 -8 110 -10 122 -2 12 -7
66 -10 120 -4 54 -11 102 -16 107 -9 10 -55 13 -101 8z"/>
</g>
</svg>
