<svg width="180" height="42" viewBox="0 0 180 42" fill="none" xmlns="http://www.w3.org/2000/svg">
<g clip-path="url(#clip0_101_15)">
<path fill-rule="evenodd" clip-rule="evenodd" d="M20.163 4.66888L18.5929 24.1914L20.7001 27.4349L22.8073 24.1914L21.2372 4.66888H20.1423H20.163ZM22.0636 4.66888L23.551 23.0965L26.8771 17.9938L23.2205 3.07816L22.2908 4.68954H22.0636V4.66888ZM18.2004 3.0575L14.5438 17.9731L17.8698 23.0759L19.3366 4.64823H19.1094L18.1797 3.03684L18.2004 3.0575ZM2.87157 4.33834L15.2668 29.1909L20.7001 28.9016L3.73924 2.85091L3.67726 3.92517L2.87157 4.31768V4.33834ZM0 3.24343L1.4048 4.17307L2.91289 3.42936L3.01618 1.756L1.61139 0.805692L0.103294 1.57007L0 3.24343ZM18.469 1.94193L19.0267 2.91289L19.5845 3.88385H21.8157L22.3735 2.91289L22.9313 1.94193L22.3735 0.970963L21.8157 0H19.5845L19.0267 0.970963L18.469 1.94193ZM2.14851 4.68954L14.3992 29.2528L9.60633 29.7486L0.433834 4.48296L1.34282 5.08206L2.14851 4.68954ZM38.5493 4.33834L26.154 29.1909L20.7208 28.9016L37.6816 2.85091L37.7436 3.92517L38.5493 4.31768V4.33834ZM41.4209 3.24343L40.0161 4.17307L38.508 3.42936L38.4047 1.756L39.8095 0.826351L41.3176 1.57007L41.4209 3.24343ZM39.2724 4.68954L27.0217 29.2528L31.8145 29.7486L40.987 4.48296L40.078 5.08206L39.2724 4.68954Z" fill="white"/>
<path d="M42.5572 22.2289V29.6867L49.9323 22.2289H52.4321L46.2964 28.2613L52.68 37.1859H50.2422L44.9742 29.6248L42.5572 31.9385V37.1652H40.6152V22.2083H42.5572V22.2289ZM53.6922 29.5421C53.8988 28.8604 54.2294 28.2613 54.6632 27.7448C55.097 27.2283 55.6342 26.8358 56.2746 26.5466C56.915 26.2574 57.6381 26.1128 58.4851 26.1128C59.3321 26.1128 60.0552 26.2574 60.6956 26.5466C61.336 26.8358 61.8525 27.249 62.2863 27.7448C62.7201 28.2406 63.0507 28.8604 63.2573 29.5421C63.4639 30.2239 63.5878 30.9676 63.5878 31.7733C63.5878 32.579 63.4845 33.302 63.2573 33.9838C63.03 34.6655 62.7201 35.2646 62.2863 35.7811C61.8525 36.2975 61.3153 36.6901 60.6956 36.9793C60.0552 37.2685 59.3321 37.4131 58.4851 37.4131C57.6381 37.4131 56.915 37.2685 56.2746 36.9793C55.6342 36.6901 55.097 36.2975 54.6632 35.7811C54.2294 35.2646 53.8988 34.6655 53.6922 33.9838C53.465 33.302 53.3617 32.5583 53.3617 31.7733C53.3617 30.9882 53.465 30.2239 53.6922 29.5421ZM55.4482 33.5293C55.6135 34.0457 55.8614 34.4589 56.1506 34.8101C56.4399 35.1613 56.7911 35.4092 57.2042 35.5951C57.5968 35.7811 58.0306 35.8637 58.4851 35.8637C58.9396 35.8637 59.3528 35.7811 59.7659 35.5951C60.1585 35.4092 60.5097 35.1613 60.8195 34.8101C61.1088 34.4589 61.3567 34.0457 61.5219 33.5293C61.6872 33.0128 61.7698 32.4344 61.7698 31.7733C61.7698 31.1122 61.6872 30.5337 61.5219 30.0173C61.3567 29.5008 61.1088 29.0876 60.8195 28.7364C60.5303 28.3852 60.1791 28.1167 59.7659 27.9514C59.3734 27.7655 58.9396 27.6828 58.4851 27.6828C58.0306 27.6828 57.6174 27.7655 57.2042 27.9514C56.8117 28.1373 56.4605 28.4059 56.1506 28.7364C55.8408 29.0876 55.6135 29.5215 55.4482 30.0173C55.283 30.5337 55.2003 31.1122 55.2003 31.7733C55.2003 32.4344 55.283 33.0128 55.4482 33.5293ZM57.4728 22.6008V24.7699H55.6342V22.6008H57.4728ZM61.2947 22.6008V24.7699H59.4561V22.6008H61.2947ZM67.2444 26.34V28.0547H67.2857C68.0088 26.7532 69.145 26.0921 70.7151 26.0921C71.4175 26.0921 71.9753 26.1954 72.4504 26.3813C72.9049 26.5673 73.2768 26.8565 73.566 27.187C73.8552 27.5382 74.0412 27.9514 74.1651 28.4265C74.2891 28.9017 74.3304 29.4388 74.3304 30.0379V37.1652H72.595V29.8313C72.595 29.1703 72.4091 28.6331 72.0166 28.2406C71.6447 27.8481 71.1076 27.6415 70.4465 27.6415C69.9094 27.6415 69.4549 27.7241 69.0624 27.8894C68.6699 28.0547 68.36 28.3026 68.0914 28.5918C67.8435 28.9017 67.6369 29.2529 67.513 29.6661C67.389 30.0793 67.3271 30.5337 67.3271 31.0089V37.1239H65.5917V26.2987H67.2238L67.2444 26.34ZM77.0573 24.3981V22.2289H78.7927V24.3981H77.0573ZM78.7927 26.34V37.1652H77.0573V26.34H78.7927ZM89.3906 40.2227C88.6056 41.111 87.3661 41.5449 85.6721 41.5449C85.1763 41.5449 84.6804 41.4829 84.164 41.3796C83.6475 41.2763 83.193 41.0904 82.7798 40.8425C82.3666 40.5946 82.0154 40.264 81.7469 39.8509C81.4783 39.4377 81.3337 38.9419 81.2924 38.3634H83.0277C83.0277 38.694 83.131 38.9625 83.317 39.1898C83.5029 39.417 83.7301 39.6029 83.9987 39.7269C84.2673 39.8715 84.5565 39.9748 84.8664 40.0368C85.1763 40.0988 85.4861 40.1401 85.7547 40.1401C86.3331 40.1401 86.8083 40.0368 87.2008 39.8302C87.5933 39.6236 87.9239 39.355 88.1718 38.9832C88.4197 38.632 88.6263 38.1982 88.7296 37.7023C88.8535 37.2065 88.8948 36.6487 88.8948 36.0496V35.3472H88.8535C88.5436 36.029 88.1098 36.5041 87.49 36.814C86.8909 37.1239 86.2505 37.2892 85.5688 37.2892C84.7837 37.2892 84.102 37.1446 83.5029 36.8553C82.9244 36.5661 82.4286 36.1736 82.0361 35.6778C81.6436 35.182 81.3544 34.6035 81.1478 33.9424C80.9412 33.2814 80.8586 32.579 80.8586 31.8352C80.8586 31.1948 80.9412 30.5337 81.1065 29.852C81.2717 29.1703 81.5403 28.5712 81.9122 28.0134C82.284 27.4556 82.8005 27.0011 83.4203 26.6499C84.04 26.2987 84.8044 26.1128 85.7134 26.1128C86.3745 26.1128 86.9942 26.2574 87.552 26.5673C88.1098 26.8565 88.5436 27.311 88.8535 27.9101V26.3607H90.4856V36.2562C90.4856 38.0329 90.093 39.355 89.308 40.2434L89.3906 40.2227ZM87.1802 35.3472C87.5727 35.0993 87.9032 34.7895 88.1511 34.3763C88.399 33.9838 88.5849 33.5293 88.6882 33.0335C88.8122 32.5376 88.8535 32.0212 88.8535 31.5254C88.8535 31.0502 88.7915 30.5751 88.6882 30.1206C88.5849 29.6661 88.399 29.2529 88.1718 28.881C87.9445 28.5092 87.6346 28.22 87.2421 27.9927C86.8496 27.7655 86.3951 27.6622 85.858 27.6622C85.3209 27.6622 84.825 27.7655 84.4325 27.9927C84.04 28.1993 83.7095 28.4885 83.4616 28.8604C83.2137 29.2322 83.0277 29.6454 82.9038 30.1206C82.7798 30.5957 82.7385 31.0915 82.7385 31.608C82.7385 32.1038 82.7798 32.579 82.8831 33.0748C82.9864 33.5706 83.131 34.0044 83.3789 34.3969C83.6062 34.7895 83.9161 35.12 84.2879 35.3679C84.6598 35.6158 85.1349 35.7398 85.7134 35.7398C86.2918 35.7398 86.767 35.6158 87.1802 35.3679V35.3472ZM94.514 34.7481C94.6793 35.0167 94.8859 35.2439 95.1544 35.3886C95.423 35.5538 95.7122 35.6571 96.0428 35.7398C96.3733 35.8224 96.7245 35.8431 97.0757 35.8431C97.3443 35.8431 97.6335 35.8431 97.9227 35.7811C98.2326 35.7398 98.5012 35.6571 98.7491 35.5538C98.997 35.4505 99.2036 35.2853 99.3688 35.058C99.5341 34.8308 99.6167 34.5622 99.6167 34.2317C99.6167 33.7772 99.4515 33.426 99.1003 33.1781C98.7697 32.9508 98.3359 32.7442 97.8194 32.5996C97.303 32.455 96.7452 32.3311 96.1667 32.2071C95.5676 32.0832 95.0098 31.9179 94.514 31.7113C93.9976 31.5047 93.5844 31.1948 93.2332 30.8023C92.882 30.4098 92.7167 29.8727 92.7167 29.1703C92.7167 28.6331 92.8407 28.158 93.0679 27.7655C93.3158 27.3729 93.605 27.0631 93.9769 26.8152C94.3488 26.5673 94.7619 26.3813 95.2371 26.278C95.7122 26.1541 96.1667 26.0921 96.6419 26.0921C97.241 26.0921 97.7988 26.1541 98.2946 26.2574C98.7904 26.3607 99.2449 26.5466 99.6374 26.7945C100.03 27.0424 100.34 27.3936 100.567 27.8481C100.794 28.3026 100.939 28.8397 100.98 29.5008H99.2449C99.2242 29.1496 99.1209 28.8604 98.9763 28.6331C98.8317 28.4059 98.6458 28.22 98.3979 28.0753C98.15 27.9307 97.9021 27.8274 97.6335 27.7655C97.3649 27.7035 97.0757 27.6622 96.7865 27.6622C96.5386 27.6622 96.27 27.6828 96.0015 27.7241C95.7329 27.7655 95.485 27.8481 95.2784 27.9514C95.0511 28.0547 94.8859 28.1993 94.7413 28.3646C94.6173 28.5298 94.5347 28.7777 94.5347 29.0463C94.5347 29.3562 94.638 29.6041 94.8446 29.8107C95.0511 30.0173 95.3197 30.1825 95.6503 30.3065C95.9808 30.4305 96.332 30.5544 96.7452 30.637C97.1583 30.7197 97.5509 30.823 97.964 30.9263C98.3979 31.0296 98.8317 31.1328 99.2449 31.2775C99.6581 31.4221 100.03 31.608 100.34 31.8352C100.65 32.0625 100.918 32.3517 101.125 32.7029C101.331 33.0541 101.414 33.4879 101.414 34.0044C101.414 34.6655 101.29 35.2026 101.022 35.6365C100.753 36.0703 100.402 36.4215 99.9886 36.6901C99.5754 36.9586 99.0796 37.1446 98.5425 37.2478C98.0054 37.3511 97.4682 37.4131 96.9518 37.4131C96.3733 37.4131 95.8155 37.3511 95.2784 37.2272C94.7413 37.1032 94.2868 36.8966 93.8736 36.6074C93.4604 36.3182 93.1299 35.9463 92.9026 35.4712C92.6547 34.996 92.5101 34.4383 92.4895 33.7565H94.2248C94.2248 34.149 94.3281 34.4796 94.4934 34.7481H94.514ZM110.958 24.2535C110.318 23.7783 109.492 23.5304 108.479 23.5304C108.066 23.5304 107.674 23.5717 107.281 23.6544C106.889 23.737 106.537 23.8816 106.228 24.0675C105.918 24.2535 105.67 24.522 105.484 24.8526C105.298 25.1831 105.215 25.5963 105.215 26.0714C105.215 26.5259 105.339 26.8978 105.608 27.187C105.876 27.4762 106.228 27.7035 106.661 27.8894C107.095 28.0753 107.612 28.22 108.149 28.3439C108.707 28.4679 109.264 28.5918 109.843 28.7364C110.421 28.881 110.979 29.0463 111.537 29.2322C112.095 29.4182 112.59 29.6661 113.024 29.9966C113.458 30.3272 113.809 30.7197 114.078 31.2155C114.346 31.7113 114.47 32.3104 114.47 33.0541C114.47 33.8391 114.305 34.5209 113.954 35.0993C113.603 35.6571 113.169 36.1323 112.611 36.4835C112.074 36.8347 111.454 37.1032 110.793 37.2685C110.132 37.4338 109.45 37.5164 108.789 37.5164C107.984 37.5164 107.199 37.4131 106.475 37.2065C105.752 36.9999 105.112 36.6901 104.554 36.2562C103.996 35.8224 103.563 35.2853 103.253 34.6242C102.922 33.9631 102.778 33.1781 102.778 32.2691H104.616C104.616 32.8888 104.74 33.4466 104.967 33.9011C105.195 34.3556 105.525 34.7275 105.897 35.0167C106.269 35.3059 106.744 35.5332 107.26 35.6571C107.777 35.7811 108.314 35.8637 108.851 35.8637C109.285 35.8637 109.719 35.8224 110.173 35.7398C110.607 35.6571 111.02 35.5125 111.372 35.3059C111.723 35.0993 112.012 34.8308 112.219 34.4796C112.446 34.1284 112.549 33.6945 112.549 33.1368C112.549 32.6203 112.425 32.2071 112.157 31.8766C111.888 31.546 111.537 31.2981 111.103 31.0915C110.669 30.8849 110.153 30.7197 109.616 30.5957C109.078 30.4718 108.5 30.3478 107.922 30.2032C107.343 30.0586 106.785 29.914 106.228 29.7487C105.67 29.5834 105.174 29.3355 104.74 29.067C104.306 28.7984 103.955 28.4059 103.687 27.9514C103.418 27.4969 103.294 26.9185 103.294 26.2367C103.294 25.493 103.439 24.8319 103.749 24.2741C104.038 23.7163 104.451 23.2619 104.947 22.9107C105.443 22.5595 106 22.2909 106.641 22.1256C107.26 21.9603 107.922 21.8571 108.583 21.8571C109.326 21.8571 110.029 21.9397 110.669 22.1256C111.31 22.3115 111.867 22.6008 112.343 22.9933C112.818 23.3858 113.21 23.8816 113.479 24.4601C113.747 25.0385 113.913 25.7616 113.933 26.5879H112.095C111.991 25.5137 111.619 24.7286 110.958 24.2535ZM120.73 38.6113C120.523 39.1485 120.317 39.5823 120.131 39.9541C119.924 40.3053 119.718 40.6152 119.47 40.8425C119.222 41.0697 118.974 41.235 118.664 41.3383C118.375 41.4416 118.044 41.5036 117.652 41.5036C117.445 41.5036 117.239 41.5036 117.053 41.4622C116.846 41.4416 116.64 41.3796 116.454 41.3176V39.6856C116.598 39.7476 116.784 39.8095 116.97 39.8715C117.156 39.9335 117.342 39.9541 117.466 39.9541C117.817 39.9541 118.106 39.8715 118.354 39.6856C118.602 39.5203 118.767 39.2724 118.891 38.9419L119.594 37.1239L115.421 26.3607H117.383L120.461 35.2233H120.503L123.457 26.3607H125.296L120.709 38.632L120.73 38.6113ZM128.105 34.7481C128.27 35.0167 128.477 35.2439 128.746 35.3886C129.014 35.5538 129.303 35.6571 129.634 35.7398C129.965 35.8017 130.316 35.8431 130.667 35.8431C130.935 35.8431 131.225 35.8431 131.514 35.7811C131.824 35.7398 132.092 35.6571 132.34 35.5538C132.588 35.4505 132.795 35.2853 132.96 35.058C133.125 34.8308 133.208 34.5622 133.208 34.2317C133.208 33.7772 133.043 33.426 132.691 33.1781C132.361 32.9508 131.927 32.7442 131.411 32.5996C130.894 32.455 130.336 32.3311 129.758 32.2071C129.159 32.0832 128.601 31.9179 128.105 31.7113C127.609 31.5047 127.176 31.1948 126.824 30.8023C126.473 30.4098 126.308 29.8727 126.308 29.1703C126.308 28.6331 126.432 28.158 126.659 27.7655C126.907 27.3729 127.196 27.0631 127.568 26.8152C127.94 26.5673 128.353 26.3813 128.828 26.278C129.303 26.1541 129.758 26.0921 130.233 26.0921C130.832 26.0921 131.39 26.1541 131.886 26.2574C132.382 26.3607 132.836 26.5466 133.229 26.7945C133.621 27.0424 133.931 27.3936 134.158 27.8481C134.385 28.2819 134.53 28.8397 134.571 29.5008H132.836C132.815 29.1496 132.712 28.8604 132.568 28.6331C132.423 28.4059 132.237 28.22 131.989 28.0753C131.762 27.9307 131.493 27.8274 131.225 27.7655C130.935 27.7035 130.667 27.6622 130.378 27.6622C130.13 27.6622 129.861 27.6828 129.593 27.7241C129.324 27.7655 129.097 27.8481 128.87 27.9514C128.642 28.0547 128.477 28.1993 128.332 28.3646C128.188 28.5298 128.126 28.7777 128.126 29.0463C128.126 29.3562 128.229 29.6041 128.436 29.8107C128.642 30.0173 128.911 30.1825 129.241 30.3065C129.572 30.4305 129.944 30.5544 130.336 30.637C130.75 30.7197 131.142 30.823 131.555 30.9263C131.989 31.0296 132.423 31.1328 132.836 31.2775C133.249 31.4221 133.621 31.608 133.931 31.8352C134.262 32.0625 134.509 32.3517 134.716 32.7029C134.923 33.0541 135.005 33.4879 135.005 34.0044C135.005 34.6655 134.881 35.2026 134.613 35.6365C134.344 36.0703 133.993 36.4215 133.58 36.6901C133.146 36.9586 132.671 37.1446 132.134 37.2478C131.597 37.3511 131.059 37.4131 130.522 37.4131C129.944 37.4131 129.386 37.3511 128.849 37.2272C128.312 37.1032 127.857 36.8966 127.444 36.6074C127.031 36.3182 126.721 35.9463 126.473 35.4712C126.225 34.996 126.101 34.4383 126.06 33.7565H127.795C127.795 34.149 127.899 34.4796 128.064 34.7481H128.105ZM141.471 26.34V27.9101H139.364V34.6242C139.364 34.8308 139.364 34.996 139.406 35.12C139.447 35.2439 139.509 35.3472 139.591 35.4092C139.674 35.4712 139.819 35.5332 139.984 35.5538C140.149 35.5745 140.377 35.5951 140.645 35.5951H141.43V37.1652H140.108C139.653 37.1652 139.282 37.1446 138.951 37.0826C138.641 37.0206 138.373 36.8967 138.166 36.7314C137.959 36.5661 137.815 36.3182 137.732 36.029C137.65 35.7398 137.588 35.3266 137.588 34.8101V27.9307H135.79V26.3607H137.588V23.1172H139.323V26.3607H141.43L141.471 26.34ZM150.851 36.4835C150.066 37.1032 149.074 37.4131 147.876 37.4131C147.029 37.4131 146.306 37.2685 145.686 36.9999C145.066 36.7314 144.55 36.3389 144.136 35.8224C143.723 35.3059 143.393 34.7275 143.186 34.0251C142.98 33.3227 142.856 32.5583 142.835 31.732C142.835 30.9056 142.959 30.1619 143.207 29.4801C143.455 28.7984 143.806 28.1993 144.24 27.7035C144.674 27.2077 145.211 26.8152 145.81 26.5259C146.409 26.2367 147.07 26.1128 147.793 26.1128C148.723 26.1128 149.508 26.3194 150.127 26.7119C150.747 27.1044 151.243 27.6209 151.615 28.22C151.987 28.8397 152.255 29.5008 152.4 30.2239C152.545 30.9469 152.607 31.6493 152.565 32.2897H144.674C144.674 32.7649 144.715 33.2194 144.839 33.6326C144.963 34.0664 145.149 34.4383 145.438 34.7688C145.707 35.0993 146.058 35.3679 146.471 35.5538C146.905 35.7398 147.401 35.8431 147.958 35.8431C148.702 35.8431 149.301 35.6778 149.756 35.3266C150.21 34.9754 150.541 34.4589 150.685 33.7359H152.4C152.173 34.9547 151.656 35.8637 150.871 36.4835H150.851ZM150.437 29.5215C150.272 29.1496 150.066 28.8191 149.797 28.5505C149.528 28.2819 149.218 28.0547 148.867 27.9101C148.516 27.7655 148.103 27.6622 147.669 27.6622C147.235 27.6622 146.822 27.7448 146.45 27.9101C146.099 28.0753 145.789 28.2819 145.521 28.5712C145.252 28.8604 145.066 29.1703 144.901 29.5421C144.756 29.914 144.653 30.3065 144.632 30.7197H150.685C150.665 30.3065 150.561 29.8933 150.417 29.5215H150.437ZM155.974 26.34V27.9307H156.015C156.8 26.7119 157.937 26.0921 159.424 26.0921C160.085 26.0921 160.663 26.2367 161.201 26.5053C161.738 26.7738 162.11 27.2697 162.316 27.9307C162.667 27.3523 163.143 26.8978 163.721 26.5673C164.299 26.2367 164.94 26.0921 165.622 26.0921C166.159 26.0921 166.634 26.1541 167.068 26.278C167.502 26.402 167.853 26.5879 168.163 26.8358C168.472 27.0837 168.7 27.4143 168.886 27.8068C169.051 28.1993 169.134 28.6745 169.134 29.2322V37.1652H167.398V30.0586C167.398 29.7281 167.378 29.4182 167.316 29.1083C167.254 28.8191 167.15 28.5712 167.006 28.3439C166.861 28.1373 166.655 27.9514 166.386 27.8274C166.117 27.7035 165.787 27.6415 165.353 27.6415C164.506 27.6415 163.824 27.8894 163.328 28.4059C162.833 28.9017 162.585 29.5834 162.585 30.4098V37.1446H160.849V30.0379C160.849 29.6867 160.808 29.3769 160.767 29.067C160.725 28.7571 160.601 28.5298 160.457 28.3026C160.312 28.096 160.106 27.9101 159.858 27.8068C159.61 27.6828 159.279 27.6209 158.887 27.6209C158.391 27.6209 157.957 27.7242 157.585 27.9307C157.213 28.1373 156.924 28.3852 156.718 28.6951C156.49 28.9843 156.325 29.2942 156.222 29.6041C156.119 29.914 156.077 30.1825 156.077 30.3891V37.1239H154.342V26.2987H155.974V26.34ZM173.059 34.7481C173.224 35.0167 173.431 35.2439 173.699 35.3886C173.968 35.5538 174.257 35.6571 174.588 35.7398C174.918 35.8017 175.269 35.8431 175.62 35.8431C175.889 35.8431 176.178 35.8431 176.467 35.7811C176.777 35.7398 177.046 35.6571 177.294 35.5538C177.542 35.4505 177.748 35.2853 177.914 35.058C178.079 34.8308 178.161 34.5622 178.161 34.2317C178.161 33.7772 177.996 33.426 177.645 33.1781C177.314 32.9508 176.881 32.7442 176.364 32.5996C175.848 32.455 175.29 32.3311 174.711 32.2071C174.112 32.0832 173.555 31.9179 173.059 31.7113C172.563 31.5047 172.129 31.1948 171.778 30.8023C171.427 30.4098 171.261 29.8727 171.261 29.1703C171.261 28.6331 171.385 28.158 171.613 27.7655C171.861 27.3729 172.15 27.0631 172.522 26.8152C172.893 26.5673 173.307 26.3813 173.782 26.278C174.257 26.1541 174.711 26.0921 175.187 26.0921C175.786 26.0921 176.343 26.1541 176.839 26.2574C177.335 26.3607 177.79 26.5466 178.182 26.7945C178.575 27.0424 178.885 27.3936 179.112 27.8481C179.339 28.2819 179.484 28.8397 179.525 29.5008H177.79C177.769 29.1496 177.666 28.8604 177.521 28.6331C177.376 28.4059 177.191 28.22 176.943 28.0753C176.715 27.9307 176.447 27.8274 176.178 27.7655C175.889 27.7035 175.62 27.6622 175.331 27.6622C175.083 27.6622 174.815 27.6828 174.546 27.7241C174.278 27.7655 174.05 27.8481 173.823 27.9514C173.596 28.0547 173.431 28.1993 173.286 28.3646C173.141 28.5298 173.079 28.7777 173.079 29.0463C173.079 29.3562 173.183 29.6041 173.389 29.8107C173.596 30.0173 173.864 30.1825 174.195 30.3065C174.526 30.4305 174.897 30.5544 175.29 30.637C175.703 30.7197 176.096 30.823 176.509 30.9263C176.943 31.0296 177.376 31.1328 177.79 31.2775C178.203 31.4221 178.575 31.608 178.885 31.8352C179.215 32.0625 179.463 32.3517 179.67 32.7029C179.876 33.0541 179.959 33.4879 179.959 34.0044C179.959 34.6655 179.835 35.2026 179.566 35.6365C179.298 36.0703 178.946 36.4215 178.533 36.6901C178.099 36.9586 177.624 37.1446 177.087 37.2478C176.55 37.3511 176.013 37.4131 175.476 37.4131C174.897 37.4131 174.34 37.3511 173.802 37.2272C173.265 37.1032 172.811 36.8966 172.398 36.6074C171.984 36.3182 171.675 35.9463 171.427 35.4712C171.179 34.996 171.055 34.4383 171.014 33.7565H172.749C172.749 34.149 172.852 34.4796 173.017 34.7481H173.059Z" fill="white"/>
</g>
<defs>
<clipPath id="clip0_101_15">
<rect width="180" height="42" fill="white"/>
</clipPath>
</defs>
</svg>
